<svg xmlns="http://www.w3.org/2000/svg" viewBox="0 0 300 64" role="img" aria-label="Progresss">
  <g>
    <rect width="64" height="64" rx="14" fill="#0F2A44"/>
    <circle cx="47.5" cy="10.5" r="2" fill="#F5A524" opacity=".55"/>
    <circle cx="51.5" cy="7.5" r="2.4" fill="#F5A524" opacity=".75"/>
    <circle cx="56" cy="5.5" r="2.7" fill="#F5A524"/>
    <path fill="#FFFFFF" d="M9 51V37l9-5v5l10-7.5v7.5l10-10v10h6V14h8v37z"/>
    <rect x="13" y="41" width="4" height="4" rx="1" fill="#0F2A44"/>
    <rect x="21" y="41" width="4" height="4" rx="1" fill="#0F2A44"/>
    <rect x="29" y="41" width="4" height="4" rx="1" fill="#0F2A44"/>
    <rect x="37" y="41" width="4" height="4" rx="1" fill="#0F2A44"/>
    <rect x="9" y="54.5" width="43" height="3.5" rx="1.75" fill="#FFFFFF" opacity=".2"/>
    <rect x="9" y="54.5" width="30" height="3.5" rx="1.75" fill="#F5A524"/>
  </g>
  <text x="78" y="44" font-family="Inter, 'Segoe UI', Arial, sans-serif" font-size="34" font-weight="800" letter-spacing="-0.5" fill="#FFFFFF">Progres<tspan fill="#F5A524">ss</tspan></text>
</svg>
